<svg xmlns="http://www.w3.org/2000/svg" version="1.1" xmlns:xlink="http://www.w3.org/1999/xlink" width="200" height="200"><svg xmlns="http://www.w3.org/2000/svg" version="1.1" xmlns:xlink="http://www.w3.org/1999/xlink" viewBox="0 0 200 200"><rect width="200" height="200" fill="url('#gradient')"></rect><defs><linearGradient id="SvgjsLinearGradient1001" gradientTransform="rotate(196 0.5 0.5)"><stop offset="0%" stop-color="#0e5ba8"></stop><stop offset="100%" stop-color="#2a71da"></stop></linearGradient></defs><g><g fill="#ffffff" transform="matrix(4.110948905109489,0,0,4.110948905109489,23.124085027240483,129.23310345976893)" stroke="#c8512e" stroke-width="0"><path d="M9.98 0L9.15-2.66L4.45-2.66L3.63 0L-0.03 0L5.19-14.22L8.41-14.22L13.66 0L9.98 0ZM6.80-10.23L5.27-5.30L8.33-5.30L6.80-10.23ZM22.59-4.81L26.00-4.81Q25.93-3.33 25.20-2.19Q24.46-1.05 23.14-0.43Q21.82 0.20 20.12 0.20L20.12 0.20Q17.31 0.20 15.70-1.63Q14.09-3.46 14.09-6.79L14.09-6.79L14.09-7.49Q14.09-9.58 14.82-11.15Q15.55-12.71 16.91-13.57Q18.28-14.42 20.08-14.42L20.08-14.42Q22.67-14.42 24.24-13.06Q25.81-11.70 26.03-9.31L26.03-9.31L22.61-9.31Q22.57-10.61 21.95-11.17Q21.34-11.74 20.08-11.74L20.08-11.74Q18.80-11.74 18.20-10.78Q17.61-9.82 17.58-7.72L17.58-7.72L17.58-6.72Q17.58-4.44 18.15-3.47Q18.72-2.49 20.12-2.49L20.12-2.49Q21.30-2.49 21.92-3.05Q22.55-3.60 22.59-4.81L22.59-4.81ZM36.44-8.57L36.44-6.03L31.04-6.03L31.04-2.64L37.41-2.64L37.41 0L27.62 0L27.62-14.22L37.43-14.22L37.43-11.57L31.04-11.57L31.04-8.57L36.44-8.57Z"></path></g></g></svg><style>@media (prefers-color-scheme: light) { :root { filter: none; } }
@media (prefers-color-scheme: dark) { :root { filter: none; } }
</style></svg>